PathFileType  4	(X/Y/Z) /root/TVB/SAM4Dcap/opencap/output/Data/subject2_Session0/MarkerData/mmpose_0.8/2-cameras/PreAugmentation
DataRate	CameraRate	NumFrames	NumMarkers	Units	OrigDataRate	OrigDataStartFrame	OrigNumFrames
60.0	60.0	17	20	m	60.0	134	152
Frame#	Time	Neck			RShoulder			RElbow			RWrist			LShoulder			LElbow			LWrist			midHip			RHip			RKnee			RAnkle			LHip			LKnee			LAnkle			LBigToe			LSmallToe			LHeel			RBigToe			RSmallToe			RHeel			
		X1	Y1	Z1	X2	Y2	Z2	X3	Y3	Z3	X4	Y4	Z4	X5	Y5	Z5	X6	Y6	Z6	X7	Y7	Z7	X8	Y8	Z8	X9	Y9	Z9	X10	Y10	Z10	X11	Y11	Z11	X12	Y12	Z12	X13	Y13	Z13	X14	Y14	Z14	X15	Y15	Z15	X16	Y16	Z16	X17	Y17	Z17	X18	Y18	Z18	X19	Y19	Z19	X20	Y20	Z20	

134	2.2166667	0.9875200	1.0810000	-0.6067000	1.0003700	1.0765400	-0.4336500	0.9495700	0.7741000	-0.3448000	0.9901900	0.4822400	-0.2694900	0.9838600	1.0849400	-0.7793100	0.9409900	0.7770400	-0.8427000	0.9974600	0.4946400	-0.9098300	1.0113500	0.5488500	-0.5988000	1.0186700	0.5498200	-0.4744800	0.9631100	0.0772200	-0.4467500	0.9027500	-0.4258600	-0.3898800	1.0098100	0.5485500	-0.7230100	0.9535700	0.0659100	-0.7699200	0.9031200	-0.4149900	-0.8186000	1.0804100	-0.4762900	-0.8569800	1.0753600	-0.4737100	-0.8552100	0.8794400	-0.4569800	-0.8029500	1.0857900	-0.4728500	-0.3691800	1.0791500	-0.4719500	-0.3689800	0.8657200	-0.4731300	-0.3961700
135	2.2333333	0.9884300	1.0813200	-0.6066900	1.0005300	1.0771000	-0.4338200	0.9485000	0.7733700	-0.3448100	0.9898800	0.4809400	-0.2689000	0.9856500	1.0850500	-0.7793100	0.9421500	0.7772300	-0.8434000	1.0012600	0.4925500	-0.9104100	1.0130700	0.5456700	-0.5987900	1.0190500	0.5475100	-0.4746200	0.9654600	0.0760300	-0.4459600	0.9020600	-0.4256200	-0.3878200	1.0124900	0.5453600	-0.7228600	0.9502100	0.0651300	-0.7675500	0.9003500	-0.4187500	-0.8173800	1.0806400	-0.4756400	-0.8551700	1.0620600	-0.4755300	-0.8610000	0.8749700	-0.4616000	-0.8026700	1.0859500	-0.4741000	-0.3679000	1.0796800	-0.4729900	-0.3679400	0.8658800	-0.4726700	-0.3957800
136	2.2500000	0.9870200	1.0817800	-0.6074000	0.9996800	1.0779900	-0.4355300	0.9482400	0.7767500	-0.3470000	0.9884000	0.4829900	-0.2686400	0.9833100	1.0851500	-0.7791900	0.9391300	0.7800100	-0.8425900	0.9964900	0.4929600	-0.9096500	1.0087700	0.5520800	-0.6000500	1.0173300	0.5529800	-0.4757400	0.9672300	0.0810200	-0.4489900	0.9041600	-0.4245400	-0.3879100	1.0057500	0.5521100	-0.7243100	0.9511300	0.0666100	-0.7686700	0.9020400	-0.4141000	-0.8185800	1.0790900	-0.4750700	-0.8581500	1.0617600	-0.4742600	-0.8633100	0.8785900	-0.4540600	-0.8027300	1.0877900	-0.4719600	-0.3688100	1.0811800	-0.4712400	-0.3686200	0.8669300	-0.4713500	-0.3939800
137	2.2666667	0.9870400	1.0817400	-0.6065400	0.9999900	1.0776400	-0.4347900	0.9471000	0.7761800	-0.3473400	0.9903200	0.4816900	-0.2673000	0.9831000	1.0853200	-0.7779100	0.9391700	0.7790500	-0.8415700	0.9965000	0.4942800	-0.9103200	1.0114400	0.5510500	-0.5974300	1.0196200	0.5526000	-0.4728000	0.9648800	0.0780900	-0.4477400	0.9034100	-0.4253100	-0.3886600	1.0085600	0.5506300	-0.7220200	0.9531500	0.0667800	-0.7697600	0.9041700	-0.4148700	-0.8182000	1.0619400	-0.4808200	-0.8676000	1.0553100	-0.4778900	-0.8661800	0.8815100	-0.4562900	-0.8014400	1.0871600	-0.4729200	-0.3691800	1.0803000	-0.4721200	-0.3692800	0.8660700	-0.4722700	-0.3947600
138	2.2833333	0.9868500	1.0815800	-0.6077300	0.9992400	1.0779700	-0.4359300	0.9468400	0.7763700	-0.3476400	0.9900500	0.4816300	-0.2685700	0.9834900	1.0847600	-0.7794700	0.9404100	0.7790100	-0.8423100	0.9973100	0.4936700	-0.9102200	1.0106300	0.5488400	-0.5977300	1.0194600	0.5503100	-0.4739100	0.9690200	0.0796100	-0.4469500	0.9044400	-0.4247400	-0.3887300	1.0073000	0.5485200	-0.7215000	0.9504200	0.0674900	-0.7677200	0.9014800	-0.4162000	-0.8191300	1.0746600	-0.4756900	-0.8596200	1.0681400	-0.4735800	-0.8584600	0.8764300	-0.4581700	-0.8026900	1.0863400	-0.4714500	-0.3704500	1.0794700	-0.4706800	-0.3703500	0.8667500	-0.4716300	-0.3954700
139	2.3000000	0.9877800	1.0812600	-0.6070900	1.0005900	1.0776000	-0.4345900	0.9504300	0.7744100	-0.3451200	0.9897100	0.4814500	-0.2683700	0.9841500	1.0843600	-0.7791300	0.9398300	0.7792600	-0.8419400	0.9941900	0.4936400	-0.9098900	1.0123700	0.5506700	-0.5976600	1.0198000	0.5524700	-0.4730000	0.9643400	0.0788800	-0.4459000	0.9030300	-0.4252400	-0.3879500	1.0103400	0.5500100	-0.7223200	0.9531600	0.0681000	-0.7680000	0.9032600	-0.4157100	-0.8178000	1.0604400	-0.4801000	-0.8689500	1.0536900	-0.4773300	-0.8674900	0.8811000	-0.4569900	-0.8010700	1.0873300	-0.4716000	-0.3697400	1.0806600	-0.4708200	-0.3695200	0.8655000	-0.4729900	-0.3935700
140	2.3166667	0.9870100	1.0821400	-0.6073600	0.9994700	1.0785900	-0.4354100	0.9466500	0.7769300	-0.3473300	0.9889900	0.4819500	-0.2689500	0.9838000	1.0851500	-0.7791400	0.9411200	0.7789000	-0.8427800	0.9968400	0.4955800	-0.9109100	1.0117100	0.5550100	-0.5975400	1.0189400	0.5561200	-0.4732700	0.9629900	0.0791400	-0.4469500	0.9040400	-0.4248600	-0.3874900	1.0100100	0.5547800	-0.7217800	0.9556300	0.0690500	-0.7680600	0.9033500	-0.4121500	-0.8178600	1.0637600	-0.4795000	-0.8659600	1.0571400	-0.4768400	-0.8646300	0.8809500	-0.4520400	-0.7999900	1.0849800	-0.4716200	-0.3690100	1.0782900	-0.4707000	-0.3688600	0.8666100	-0.4715100	-0.3939600
141	2.3333333	0.9874500	1.0822900	-0.6067800	0.9999800	1.0786700	-0.4346900	0.9472600	0.7751800	-0.3459400	0.9902900	0.4820500	-0.2674100	0.9842400	1.0855400	-0.7789900	0.9380600	0.7786800	-0.8417100	0.9936700	0.4933400	-0.9092800	1.0120800	0.5554700	-0.5969300	1.0196900	0.5571000	-0.4726300	0.9661300	0.0820200	-0.4479200	0.9037700	-0.4212300	-0.3861500	1.0096900	0.5551900	-0.7211700	0.9543200	0.0683500	-0.7683400	0.9038800	-0.4134700	-0.8163900	1.0575100	-0.4811800	-0.8725000	1.0510400	-0.4781700	-0.8708000	0.8814100	-0.4529500	-0.7983300	1.0821400	-0.4733200	-0.3692100	1.0753700	-0.4723400	-0.3692200	0.8662800	-0.4693400	-0.3920500
142	2.3500000	0.9877000	1.0822500	-0.6074300	1.0006000	1.0786400	-0.4356500	0.9477600	0.7772300	-0.3476300	0.9892100	0.4828300	-0.2674000	0.9839900	1.0855600	-0.7793000	0.9386800	0.7843900	-0.8408500	0.9949800	0.4968600	-0.9093800	1.0115300	0.5578300	-0.5975800	1.0201100	0.5587400	-0.4732300	0.9657800	0.0814300	-0.4472700	0.9034300	-0.4213200	-0.3868900	1.0083800	0.5579100	-0.7219100	0.9530300	0.0667600	-0.7682900	0.9028600	-0.4115100	-0.8172200	1.0613700	-0.4787300	-0.8684000	1.0546900	-0.4758100	-0.8671600	0.8809200	-0.4512200	-0.7996900	1.0830000	-0.4742000	-0.3680400	1.0763300	-0.4731600	-0.3681800	0.8662900	-0.4693000	-0.3920000
143	2.3666667	0.9872600	1.0825800	-0.6077500	1.0001000	1.0788800	-0.4357900	0.9479900	0.7770200	-0.3479700	0.9883500	0.4829600	-0.2682600	0.9835800	1.0858800	-0.7797000	0.9403400	0.7823800	-0.8414000	0.9983400	0.4956300	-0.9090400	1.0108200	0.5569800	-0.5990000	1.0198900	0.5582800	-0.4753700	0.9686600	0.0811400	-0.4471400	0.9048700	-0.4225300	-0.3881300	1.0069500	0.5568100	-0.7226800	0.9494600	0.0662300	-0.7670400	0.9017000	-0.4159400	-0.8178500	1.0707500	-0.4778900	-0.8590200	1.0631600	-0.4757800	-0.8586500	0.8770900	-0.4572900	-0.8035300	1.0839600	-0.4737100	-0.3675300	1.0768800	-0.4729500	-0.3675300	0.8689800	-0.4698500	-0.3942400
144	2.3833333	0.9871800	1.0816600	-0.6071300	1.0001000	1.0778500	-0.4347500	0.9465100	0.7732600	-0.3470500	0.9901900	0.4814300	-0.2666300	0.9834400	1.0850900	-0.7793100	0.9358700	0.7801700	-0.8402600	0.9972200	0.4952100	-0.9096500	1.0114000	0.5586400	-0.5964800	1.0209300	0.5600800	-0.4733600	0.9698200	0.0799600	-0.4479900	0.9045600	-0.4240500	-0.3883200	1.0069600	0.5585100	-0.7195400	0.9482000	0.0678600	-0.7663700	0.9033400	-0.4144700	-0.8174100	1.0501900	-0.4827100	-0.8722600	1.0437200	-0.4798500	-0.8703000	0.8819500	-0.4565900	-0.8020500	1.0842700	-0.4729600	-0.3688100	1.0771900	-0.4721800	-0.3686100	0.8678400	-0.4707100	-0.3947300
145	2.4000000	0.9869100	1.0815800	-0.6079800	0.9994900	1.0782600	-0.4350000	0.9464400	0.7780200	-0.3475900	0.9899400	0.4822900	-0.2679400	0.9834800	1.0844300	-0.7806200	0.9363400	0.7802100	-0.8410500	0.9964600	0.4957200	-0.9099000	1.0103100	0.5563700	-0.5969700	1.0186900	0.5583800	-0.4725800	0.9691200	0.0807300	-0.4481400	0.9050600	-0.4231800	-0.3872400	1.0067300	0.5561900	-0.7213000	0.9495000	0.0684900	-0.7669000	0.9019400	-0.4146300	-0.8187800	1.0745100	-0.4783300	-0.8595500	1.0674800	-0.4763100	-0.8588500	0.8776300	-0.4557500	-0.8045400	1.0868700	-0.4729900	-0.3692600	1.0799200	-0.4721900	-0.3693500	0.8679300	-0.4704800	-0.3920800
146	2.4166667	0.9873200	1.0814800	-0.6071500	1.0007200	1.0776700	-0.4343900	0.9474900	0.7758600	-0.3470000	0.9904400	0.4825200	-0.2680100	0.9830700	1.0847900	-0.7796000	0.9409700	0.7780300	-0.8420900	0.9942800	0.4937400	-0.9104000	1.0125600	0.5543500	-0.5961600	1.0203200	0.5561900	-0.4712200	0.9644100	0.0779900	-0.4458000	0.9027700	-0.4243200	-0.3872900	1.0101300	0.5536400	-0.7210200	0.9542500	0.0691800	-0.7684700	0.9037600	-0.4157600	-0.8175600	1.0638300	-0.4803400	-0.8680100	1.0569200	-0.4775400	-0.8668500	0.8811900	-0.4564800	-0.8012700	1.0842200	-0.4730900	-0.3714500	1.0773700	-0.4720300	-0.3716000	0.8658200	-0.4705000	-0.3917800
147	2.4333333	0.9879200	1.0814600	-0.6069500	1.0003700	1.0775000	-0.4342000	0.9466500	0.7752200	-0.3458200	0.9906500	0.4835900	-0.2676100	0.9847600	1.0849600	-0.7794400	0.9406300	0.7808600	-0.8419700	1.0004500	0.4958700	-0.9098100	1.0107100	0.5575400	-0.5966500	1.0190800	0.5587700	-0.4724300	0.9692700	0.0795900	-0.4481900	0.9050900	-0.4205200	-0.3898500	1.0071800	0.5579900	-0.7208300	0.9492100	0.0671900	-0.7672700	0.9017500	-0.4127800	-0.8172400	1.0616300	-0.4781600	-0.8690600	1.0543800	-0.4753500	-0.8680800	0.8801200	-0.4526600	-0.8010000	1.0850200	-0.4713000	-0.3684800	1.0779900	-0.4704300	-0.3684900	0.8676800	-0.4678700	-0.3953300
148	2.4500000	0.9875700	1.0823100	-0.6074400	0.9999700	1.0782500	-0.4355000	0.9463900	0.7754400	-0.3468200	0.9891700	0.4832500	-0.2674600	0.9844800	1.0860000	-0.7791700	0.9415000	0.7803600	-0.8419400	0.9976200	0.4960100	-0.9099000	1.0110200	0.5578400	-0.5977700	1.0189400	0.5592900	-0.4729900	0.9660400	0.0802800	-0.4473400	0.9037600	-0.4236600	-0.3887400	1.0083300	0.5576900	-0.7224400	0.9534900	0.0682500	-0.7672700	0.9028500	-0.4125300	-0.8177000	1.0667500	-0.4767200	-0.8634800	1.0580200	-0.4745900	-0.8640300	0.8802800	-0.4532300	-0.8022300	1.0837900	-0.4732000	-0.3693600	1.0769100	-0.4723500	-0.3694200	0.8669600	-0.4708100	-0.3941500
149	2.4666667	0.9874600	1.0818600	-0.6068300	1.0004000	1.0778700	-0.4339700	0.9491100	0.7731900	-0.3444700	0.9882700	0.4808100	-0.2687000	0.9839200	1.0853100	-0.7792100	0.9404800	0.7798500	-0.8411900	0.9977800	0.4972600	-0.9119700	1.0118000	0.5540200	-0.5978800	1.0199800	0.5553400	-0.4730400	0.9663200	0.0784200	-0.4452400	0.9029300	-0.4215200	-0.3892300	1.0089000	0.5536600	-0.7226400	0.9529800	0.0682700	-0.7690500	0.9033400	-0.4163000	-0.8182800	1.0728100	-0.4791500	-0.8592900	1.0658700	-0.4772100	-0.8587200	0.8777700	-0.4581100	-0.8027300	1.0816700	-0.4724500	-0.3684800	1.0749400	-0.4714500	-0.3683900	0.8663400	-0.4685400	-0.3958200
150	2.4833333	0.9875400	1.0812700	-0.6076600	1.0006200	1.0779100	-0.4344700	0.9475300	0.7764100	-0.3471500	0.9899800	0.4823500	-0.2684900	0.9836600	1.0842300	-0.7806200	0.9340900	0.7794900	-0.8410600	0.9941800	0.4965100	-0.9109700	1.0103000	0.5506700	-0.5975400	1.0195600	0.5531100	-0.4728400	0.9702000	0.0792000	-0.4479900	0.9041500	-0.4225500	-0.3883400	1.0058500	0.5502600	-0.7223900	0.9498800	0.0678400	-0.7670400	0.9037200	-0.4154600	-0.8185200	1.0718000	-0.4769300	-0.8601700	1.0647700	-0.4747800	-0.8593000	0.8804900	-0.4578900	-0.8043600	1.0853600	-0.4716800	-0.3706500	1.0783300	-0.4707300	-0.3706800	0.8675400	-0.4690700	-0.3924000
